<svg viewBox="0 0 16 80" fill="none" xmlns="http://www.w3.org/2000/svg">
<path d="M8 64C12.4183 64 16 67.5817 16 72C16 76.4183 12.4183 80 8 80C3.58172 80 0 76.4183 0 72C0 67.5817 3.58172 64 8 64Z" fill="currentColor"/>
<path d="M8 32C12.4183 32 16 35.5817 16 40C16 44.4183 12.4183 48 8 48C3.58172 48 0 44.4183 0 40C0 35.5817 3.58172 32 8 32Z" fill="currentColor"/>
<path d="M8 0C12.4183 0 16 3.58172 16 8C16 12.4183 12.4183 16 8 16C3.58172 16 0 12.4183 0 8C0 3.58172 3.58172 0 8 0Z" fill="currentColor"/>
</svg>
