<svg viewBox="0 0 80 76" fill="none" xmlns="http://www.w3.org/2000/svg">
<path fill-rule="evenodd" clip-rule="evenodd" d="M49.2472 2.87531C49.8141 0.740992 52.013 -0.549187 54.08 0.228028C58.1913 1.77394 61.981 3.97665 65.3202 6.70948C67.0296 8.10847 67.0183 10.6585 65.4565 12.2207L64.749 12.9284C63.9681 13.7094 63.972 14.9716 64.7041 15.7985C67.633 19.1058 69.8688 22.9678 71.2773 27.1549C71.6295 28.2017 72.7219 28.8344 73.7881 28.5465L74.7569 28.2846C76.8906 27.7078 79.1089 28.9696 79.4679 31.1505C79.8174 33.2741 80 35.4539 80 37.6764C80 39.8696 79.8222 42.0213 79.4817 44.1184C79.1274 46.2998 76.9125 47.5664 74.7778 46.9948L73.8076 46.735C72.7408 46.4492 71.6499 47.085 71.2998 48.1325C69.9001 52.3224 67.6727 56.1893 64.751 59.5026C64.0204 60.3311 64.0181 61.5943 64.8008 62.3737L65.5076 63.0775C67.0729 64.6364 67.0897 67.1867 65.3831 68.5895C62.0496 71.3296 58.2651 73.5406 54.1577 75.0952C52.0922 75.8769 49.8906 74.5912 49.3194 72.458L49.0586 71.484C48.7726 70.4173 47.6759 69.7907 46.5938 70.0114C42.2653 70.8941 37.8029 70.8988 33.4727 70.0251C32.3901 69.8067 31.2955 70.4353 31.0117 71.5026L30.7522 72.4792C30.1851 74.6132 27.9864 75.9031 25.9196 75.1259C21.8083 73.58 18.0188 71.377 14.6796 68.6441C12.9699 67.2449 12.9816 64.6942 14.544 63.1322L15.251 62.4255C16.0319 61.6444 16.0262 60.3822 15.2939 59.5553C12.3651 56.2481 10.1302 52.3851 8.72168 48.1979C8.36938 47.1512 7.27711 46.5173 6.21094 46.8053L5.24073 47.0674C3.10718 47.6437 0.889437 46.3817 0.530981 44.2009C0.181987 42.0778 0 39.8983 0 37.6764C1.29219e-05 35.483 0.177263 33.331 0.517478 31.2336C0.87139 29.0518 3.08704 27.7852 5.22197 28.3576L6.19238 28.6178C7.25917 28.9036 8.35015 28.2678 8.7002 27.2204C10.0999 23.0305 12.3273 19.1635 15.249 15.8503C15.9794 15.0218 15.9818 13.7585 15.1992 12.9792L14.4906 12.2734C12.9252 10.7146 12.9084 8.16423 14.6152 6.76161C17.949 4.02186 21.7341 1.81157 25.8418 0.257324C27.9071 -0.52412 30.1086 0.761278 30.68 2.89423L30.9414 3.86979C31.2275 4.93608 32.3225 5.56267 33.4043 5.34245C37.7328 4.45962 42.196 4.45506 46.5264 5.32877C47.609 5.54712 48.7046 4.91766 48.9883 3.85026L49.2472 2.87531ZM40 18.4762C29.3962 18.4762 20.7999 27.0727 20.7998 37.6764C20.7998 48.2803 29.3961 56.8766 40 56.8766C50.6036 56.8764 59.1992 48.2801 59.1992 37.6764C59.1991 27.0728 50.6036 18.4765 40 18.4762Z" fill="currentColor"/>
</svg>
