<svg viewBox="0 0 80 16" fill="none" xmlns="http://www.w3.org/2000/svg">
<path d="M16 8C16 12.4183 12.4183 16 8 16C3.58172 16 0 12.4183 0 8C0 3.58172 3.58172 0 8 0C12.4183 0 16 3.58172 16 8Z" fill="currentColor"/>
<path d="M48 8C48 12.4183 44.4183 16 40 16C35.5817 16 32 12.4183 32 8C32 3.58172 35.5817 0 40 0C44.4183 0 48 3.58172 48 8Z" fill="currentColor"/>
<path d="M80 8C80 12.4183 76.4183 16 72 16C67.5817 16 64 12.4183 64 8C64 3.58172 67.5817 0 72 0C76.4183 0 80 3.58172 80 8Z" fill="currentColor"/>
</svg>
