<svg viewBox="0 0 80 80" fill="none" xmlns="http://www.w3.org/2000/svg">
<path d="M74.8956 0.881C76.0638 -0.293677 77.9579 -0.293656 79.1261 0.881C80.2943 2.05589 80.2943 3.96098 79.1261 5.13588L44.2316 40.2296L78.672 74.8663C79.8397 76.0413 79.8401 77.9465 78.672 79.1212C77.504 80.2959 75.6098 80.2955 74.4415 79.1212L40.0011 44.4835L5.56165 79.1212C4.39339 80.2958 2.49833 80.296 1.33021 79.1212C0.162282 77.9465 0.162608 76.0413 1.33021 74.8663L35.7697 40.2287L0.876106 5.13588C-0.29199 3.96097 -0.292081 2.05586 0.876106 0.881C2.04426 -0.293727 3.93835 -0.293606 5.10658 0.881L40.0011 35.9738L74.8956 0.881Z" fill="currentColor"/>
</svg>
